<?xml version="1.0" encoding="UTF-8"?>
<svg xmlns="http://www.w3.org/2000/svg" xmlns:xlink="http://www.w3.org/1999/xlink" width="20pt" height="20pt" viewBox="0 0 20 20" version="1.1">
<g id="surface21274952">
<path style=" stroke:none;fill-rule:nonzero;fill:rgb(0%,0%,80.392158%);fill-opacity:1;" d="M 8.125 1.25 C 7.09375 1.25 6.25 2.09375 6.25 3.125 L 6.25 3.75 L 3.125 3.75 C 2.09375 3.75 1.25 4.59375 1.25 5.625 L 1.25 15.625 C 1.25 16.65625 2.09375 17.5 3.125 17.5 L 16.875 17.5 C 17.90625 17.5 18.75 16.65625 18.75 15.625 L 18.75 5.625 C 18.75 4.59375 17.90625 3.75 16.875 3.75 L 13.75 3.75 L 13.75 3.125 C 13.75 2.09375 12.90625 1.25 11.875 1.25 Z M 8.125 2.5 L 11.875 2.5 C 12.226562 2.5 12.5 2.773438 12.5 3.125 L 12.5 3.75 L 7.5 3.75 L 7.5 3.125 C 7.5 2.773438 7.773438 2.5 8.125 2.5 Z M 3.125 5 L 16.875 5 C 17.226562 5 17.5 5.273438 17.5 5.625 L 17.5 11.25 L 2.5 11.25 L 2.5 5.625 C 2.5 5.273438 2.773438 5 3.125 5 Z M 8.75 8.75 L 8.75 10 L 11.25 10 L 11.25 8.75 Z M 2.5 12.5 L 17.5 12.5 L 17.5 15.625 C 17.5 15.976562 17.226562 16.25 16.875 16.25 L 3.125 16.25 C 2.773438 16.25 2.5 15.976562 2.5 15.625 Z M 2.5 12.5 "/>
</g>
</svg>
